<?xml version="1.0" encoding="utf-8"?>
<!-- Generator: Adobe Illustrator 19.0.0, SVG Export Plug-In . SVG Version: 6.00 Build 0)  -->
<svg version="1.1" id="Layer_1" xmlns="http://www.w3.org/2000/svg" xmlns:xlink="http://www.w3.org/1999/xlink" x="0px" y="0px"
	 viewBox="-223 25 512 512" style="enable-background:new -223 25 512 512;" xml:space="preserve">
<style type="text/css">
	.st0{fill:#08C1F3;}
</style>
<path class="st0" d="M-95,123.9V96.1C-95,90-87.8,85-79,85h352c8.8,0,16,5,16,11.1v27.8c0,6.1-7.2,11.1-16,11.1H-79
	C-87.8,135-95,130-95,123.9z M-79,295h352c8.8,0,16-5,16-11.1v-27.8c0-6.1-7.2-11.1-16-11.1H-79c-8.8,0-16,5-16,11.1v27.8
	C-95,290-87.8,295-79,295z M-79,455h352c8.8,0,16-5,16-11.1v-27.8c0-6.1-7.2-11.1-16-11.1H-79c-8.8,0-16,5-16,11.1v27.8
	C-95,450-87.8,455-79,455z M-207,153h64c8.8,0,16-6,16-13.3V86.3c0-7.4-7.2-13.3-16-13.3h-64c-8.8,0-16,6-16,13.3v53.3
	C-223,147-215.8,153-207,153z M-207,313h64c8.8,0,16-6,16-13.3v-53.3c0-7.4-7.2-13.3-16-13.3h-64c-8.8,0-16,6-16,13.3v53.3
	C-223,307-215.8,313-207,313z M-207,473h64c8.8,0,16-6,16-13.3v-53.3c0-7.4-7.2-13.3-16-13.3h-64c-8.8,0-16,6-16,13.3v53.3
	C-223,467-215.8,473-207,473z"/>
</svg>
