<svg xmlns="http://www.w3.org/2000/svg" viewBox="-223 25 512 512"><path d="M-95 123.9V96.1C-95 90-87.8 85-79 85h352c8.8 0 16 5 16 11.1v27.8c0 6.1-7.2 11.1-16 11.1H-79c-8.8 0-16-5-16-11.1zM-79 295h352c8.8 0 16-5 16-11.1v-27.8c0-6.1-7.2-11.1-16-11.1H-79c-8.8 0-16 5-16 11.1v27.8c0 6.1 7.2 11.1 16 11.1zm0 160h352c8.8 0 16-5 16-11.1v-27.8c0-6.1-7.2-11.1-16-11.1H-79c-8.8 0-16 5-16 11.1v27.8c0 6.1 7.2 11.1 16 11.1zm-128-302h64c8.8 0 16-6 16-13.3V86.3c0-7.4-7.2-13.3-16-13.3h-64c-8.8 0-16 6-16 13.3v53.3c0 7.4 7.2 13.4 16 13.4zm0 160h64c8.8 0 16-6 16-13.3v-53.3c0-7.4-7.2-13.3-16-13.3h-64c-8.8 0-16 6-16 13.3v53.3c0 7.3 7.2 13.3 16 13.3zm0 160h64c8.8 0 16-6 16-13.3v-53.3c0-7.4-7.2-13.3-16-13.3h-64c-8.8 0-16 6-16 13.3v53.3c0 7.3 7.2 13.3 16 13.3z" fill="#08c1f3"/></svg>